<?xml version="1.0" encoding="UTF-8" standalone="no"?>
<svg
   xmlns:dc="http://purl.org/dc/elements/1.1/"
   xmlns:cc="http://creativecommons.org/ns#"
   xmlns:rdf="http://www.w3.org/1999/02/22-rdf-syntax-ns#"
   xmlns:svg="http://www.w3.org/2000/svg"
   xmlns="http://www.w3.org/2000/svg"
   xmlns:sodipodi="http://sodipodi.sourceforge.net/DTD/sodipodi-0.dtd"
   xmlns:inkscape="http://www.inkscape.org/namespaces/inkscape"
   version="1.0"
   width="256.000000pt"
   height="171.000000pt"
   viewBox="0 0 256.000000 171.000000"
   preserveAspectRatio="xMidYMid meet"
   id="svg2"
   inkscape:version="0.48.4 r9939"
   sodipodi:docname="logo-light.svg">
  <defs
     id="defs16" />
  <sodipodi:namedview
     pagecolor="#ffffff"
     bordercolor="#666666"
     borderopacity="1"
     objecttolerance="10"
     gridtolerance="10"
     guidetolerance="10"
     inkscape:pageopacity="0"
     inkscape:pageshadow="2"
     inkscape:window-width="708"
     inkscape:window-height="480"
     id="namedview14"
     showgrid="false"
     inkscape:zoom="0.846875"
     inkscape:cx="-21.254613"
     inkscape:cy="106.875"
     inkscape:window-x="907"
     inkscape:window-y="171"
     inkscape:window-maximized="0"
     inkscape:current-layer="svg2" />
  <metadata
     id="metadata4">
Created by potrace 1.12, written by Peter Selinger 2001-2015
<rdf:RDF>
  <cc:Work
     rdf:about="">
    <dc:format>image/svg+xml</dc:format>
    <dc:type
       rdf:resource="http://purl.org/dc/dcmitype/StillImage" />
  </cc:Work>
</rdf:RDF>
</metadata>
  <g
     transform="translate(0.000000,171.000000) scale(0.100000,-0.100000)"
     fill="#000000"
     stroke="none"
     id="g6"
     style="fill:#cfe3f6;fill-opacity:1">
    <path
       d="M1395 1695 c-122 -27 -224 -75 -334 -157 l-53 -40 -102 1 c-124 2 -224 -17 -312 -60 -119 -59 -215 -181 -245 -312 -11 -49 -16 -55 -82 -102 -96 -69 -180 -164 -225 -254 -34 -68 -37 -83 -40 -173 -3 -78 0 -112 17 -166 47 -153 160 -284 305 -353 164 -78 107 -74 986 -70 l785 4 69 23 c198 68 324 179 371 327 49 153 30 349 -46 483 -35 63 -122 146 -182 175 -46 22 -46 23 -57 93 -7 39 -25 110 -41 158 -60 184 -148 293 -293 363 -51 25 -125 51 -168 59 -93 19 -269 19 -353 1z m466 -395 c64 -12 78 -25 103 -90 26 -65 61 -107 117 -138 51 -28 72 -63 50 -85 -8 -8 -48 -12 -111 -12 -95 0 -100 -1 -128 -28 -16 -16 -38 -43 -48 -62 l-17 -33 32 -41 c18 -22 55 -61 83 -85 61 -53 60 -73 -5 -139 -74 -75 -87 -83 -97 -67 -17 26 -11 40 25 57 41 20 41 25 -15 128 -44 82 -66 92 -108 47 -15 -16 -48 -51 -73 -78 -51 -55 -159 -113 -257 -138 -82 -22 -221 -21 -259 0 -46 27 -91 12 -163 -52 -61 -54 -64 -56 -107 -49 -24 3 -81 24 -126 46 -45 21 -103 42 -130 45 -47 7 -48 6 -105 -48 -94 -90 -125 -106 -222 -114 l-84 -7 15 23 c8 13 32 29 52 36 47 16 128 77 214 159 37 36 78 68 91 71 12 4 40 -1 62 -10 48 -19 89 -20 111 -3 19 14 46 63 30 53 -24 -15 -9 35 21 70 l32 36 95 -7 c116 -8 283 9 355 36 29 10 74 33 101 50 38 24 67 34 124 40 132 15 166 32 257 125 72 74 82 89 86 126 3 24 6 49 9 57 3 11 -14 20 -59 32 -79 22 -87 29 -123 103 l-29 61 27 -34 c61 -74 82 -96 86 -91 3 3 -17 35 -44 72 -27 37 -49 71 -49 75 1 5 29 -22 63 -59 56 -61 67 -68 118 -78z"
       id="path8"
       style="fill:#cfe3f6;fill-opacity:1" />
    <path
       d="M1890 717 c0 -14 34 -77 42 -77 17 0 7 38 -17 60 -14 13 -25 21 -25 17z"
       id="path10"
       style="fill:#cfe3f6;fill-opacity:1" />
    <path
       d="M424 448 l-19 -23 23 19 c21 18 27 26 19 26 -2 0 -12 -10 -23 -22z"
       id="path12"
       style="fill:#cfe3f6;fill-opacity:1" />
  </g>
</svg>
